<?xml version="1.0" encoding="UTF-8"?>
<svg xmlns="http://www.w3.org/2000/svg" viewBox="0 0 960 620" role="img" aria-label="Math academy puzzle board backdrop">
  <defs>
    <linearGradient id="bg" x1="0" y1="0" x2="1" y2="1">
      <stop offset="0" stop-color="#0b211f"/>
      <stop offset="0.52" stop-color="#163a36"/>
      <stop offset="1" stop-color="#071412"/>
    </linearGradient>
    <radialGradient id="goldGlow" cx="0.18" cy="0.12" r="0.45">
      <stop offset="0" stop-color="#ffc96b" stop-opacity="0.34"/>
      <stop offset="1" stop-color="#ffc96b" stop-opacity="0"/>
    </radialGradient>
    <radialGradient id="mintGlow" cx="0.88" cy="0.78" r="0.42">
      <stop offset="0" stop-color="#8fe0c4" stop-opacity="0.25"/>
      <stop offset="1" stop-color="#8fe0c4" stop-opacity="0"/>
    </radialGradient>
    <pattern id="grid" width="46" height="42" patternUnits="userSpaceOnUse">
      <path d="M46 0H0V42" fill="none" stroke="#8fe0c4" stroke-opacity="0.12" stroke-width="1"/>
    </pattern>
    <filter id="softShadow" x="-20%" y="-20%" width="140%" height="140%">
      <feDropShadow dx="0" dy="18" stdDeviation="18" flood-color="#000000" flood-opacity="0.28"/>
    </filter>
  </defs>
  <rect width="960" height="620" fill="url(#bg)"/>
  <rect width="960" height="620" fill="url(#goldGlow)"/>
  <rect width="960" height="620" fill="url(#mintGlow)"/>
  <rect x="26" y="26" width="908" height="568" rx="34" fill="#193b37" fill-opacity="0.68" stroke="#8fe0c4" stroke-opacity="0.28"/>
  <rect x="42" y="42" width="876" height="536" rx="26" fill="url(#grid)" opacity="0.9"/>
  <g filter="url(#softShadow)">
    <path d="M152 506h656" stroke="#ffc96b" stroke-width="10" stroke-linecap="round" opacity="0.35"/>
    <path d="M460 508l-42 66h124l-42-66z" fill="#ffc96b" opacity="0.6"/>
    <circle cx="480" cy="506" r="22" fill="#8fe0c4" opacity="0.75"/>
  </g>
  <g font-family="Rockwell, Georgia, serif" font-size="30" fill="#8fe0c4" opacity="0.22">
    <text x="682" y="96">x + 7 = 18</text>
    <text x="690" y="146">A = lw</text>
    <text x="666" y="196">y = 3x + 1</text>
    <text x="638" y="246">a^2 + b^2 = c^2</text>
  </g>
  <g fill="none" stroke="#ffc96b" stroke-opacity="0.2" stroke-width="4">
    <path d="M130 130c70-54 142-54 216 0"/>
    <path d="M126 180c94 48 184 48 270 0"/>
  </g>
</svg>
